<svg width="105" height="63" viewBox="0 0 105 63" fill="none" xmlns="http://www.w3.org/2000/svg">
<path d="M15.232 47.332C15.1013 49.236 14.728 50.8973 14.112 52.316C13.496 53.716 12.7493 54.892 11.872 55.844C11.0133 56.796 10.08 57.5053 9.072 57.972C8.08267 58.4387 7.14 58.672 6.244 58.672C5.55333 58.672 4.89067 58.5227 4.256 58.224C3.64 57.9253 3.09867 57.4773 2.632 56.88C2.184 56.264 1.82933 55.4987 1.568 54.584C1.30667 53.6693 1.176 52.596 1.176 51.364C1.176 48.956 1.52133 46.856 2.212 45.064C2.90267 43.272 3.77067 41.7787 4.816 40.584C5.88 39.3893 7.00933 38.5027 8.204 37.924C9.41733 37.3453 10.5467 37.056 11.592 37.056C12.3387 37.056 12.9827 37.1867 13.524 37.448C14.084 37.7093 14.5413 38.064 14.896 38.512C15.2507 38.9413 15.5027 39.4547 15.652 40.052C15.82 40.6307 15.904 41.2467 15.904 41.9L12.068 42.628C11.9 41.8813 11.676 41.3493 11.396 41.032C11.116 40.7147 10.7987 40.556 10.444 40.556C9.97733 40.556 9.464 40.892 8.904 41.564C8.344 42.2173 7.82133 43.0667 7.336 44.112C6.85067 45.1573 6.44 46.3053 6.104 47.556C5.768 48.8067 5.58133 50.0387 5.544 51.252C5.544 52.4093 5.712 53.24 6.048 53.744C6.40267 54.2293 6.85067 54.472 7.392 54.472C7.76533 54.472 8.148 54.3787 8.54 54.192C8.95067 54.0053 9.31467 53.744 9.632 53.408C9.94933 53.0533 10.2107 52.652 10.416 52.204C10.64 51.7373 10.7613 51.2333 10.78 50.692L7.784 51.14L8.316 48.368C9.19333 48.256 10.052 48.144 10.892 48.032C11.6013 47.9387 12.348 47.8267 13.132 47.696C13.9347 47.5653 14.6347 47.444 15.232 47.332ZM24.2767 57.44C23.81 57.5147 23.2967 57.5987 22.7367 57.692C22.1767 57.7853 21.6727 57.8693 21.2247 57.944C21.2993 57.328 21.374 56.7213 21.4487 56.124C21.5047 55.6013 21.5513 55.0787 21.5887 54.556C21.6447 54.0333 21.6913 53.5853 21.7287 53.212H19.2927L18.1727 57.244C17.762 57.3 17.2767 57.3653 16.7167 57.44C16.1567 57.496 15.634 57.552 15.1487 57.608C14.5513 57.6827 13.9633 57.7573 13.3847 57.832C14.1313 55.3493 14.8687 52.904 15.5967 50.496C15.8953 49.488 16.2033 48.4333 16.5207 47.332C16.8567 46.2307 17.1833 45.1387 17.5007 44.056C17.8367 42.9547 18.154 41.9 18.4527 40.892C18.7513 39.884 19.0127 38.96 19.2367 38.12C20.506 38.0267 21.794 37.9147 23.1007 37.784C24.426 37.6533 25.714 37.476 26.9647 37.252C26.9087 37.8493 26.8433 38.596 26.7687 39.492C26.7127 40.3693 26.6567 41.3307 26.6007 42.376C26.5447 43.4213 26.4887 44.5133 26.4327 45.652C26.3767 46.7907 26.3207 47.9107 26.2647 49.012C26.1713 51.588 26.0687 54.3227 25.9567 57.216C25.3967 57.3093 24.8367 57.384 24.2767 57.44ZM19.9647 50.412C20.0393 50.412 20.17 50.412 20.3567 50.412C20.562 50.3933 20.7673 50.384 20.9727 50.384C21.1967 50.3653 21.402 50.356 21.5887 50.356C21.7753 50.3373 21.906 50.3187 21.9807 50.3C21.9807 50.188 21.99 50.0013 22.0087 49.74C22.046 49.46 22.074 49.152 22.0927 48.816C22.13 48.4613 22.1673 48.0787 22.2047 47.668C22.242 47.2573 22.2793 46.856 22.3167 46.464C22.3913 45.512 22.4847 44.4853 22.5967 43.384L22.7647 40.948L22.3447 40.976L21.7007 43.384L19.9647 50.412ZM25.2459 57.832C26.0673 55.3493 26.8513 52.9133 27.5979 50.524C27.9153 49.516 28.2419 48.4613 28.5779 47.36C28.9139 46.2587 29.2499 45.1667 29.5859 44.084C29.9219 43.0013 30.2299 41.956 30.5099 40.948C30.8086 39.94 31.0699 39.0067 31.2939 38.148C32.3206 38.148 33.2913 38.092 34.2059 37.98C35.1206 37.868 36.1099 37.7653 37.1739 37.672C37.1179 38.0827 37.0526 38.5493 36.9779 39.072C36.9219 39.576 36.8473 40.108 36.7539 40.668C36.6793 41.228 36.5953 41.8067 36.5019 42.404C36.4086 43.0013 36.2966 43.7667 36.1659 44.7C36.0353 45.6333 35.8579 46.8 35.6339 48.2H35.9979C36.5393 46.7813 36.9873 45.6053 37.3419 44.672C37.6966 43.72 37.9859 42.9453 38.2099 42.348C38.4339 41.7507 38.6579 41.172 38.8819 40.612C39.1246 40.0333 39.3486 39.492 39.5539 38.988C39.7779 38.4653 39.9833 38.008 40.1699 37.616C40.6366 37.5787 41.0753 37.532 41.4859 37.476C41.8966 37.42 42.3073 37.364 42.7179 37.308C43.1286 37.2333 43.5393 37.168 43.9499 37.112C44.3793 37.0373 44.8459 36.9533 45.3499 36.86C45.1633 37.9427 44.9859 39.0533 44.8179 40.192C44.6499 41.3307 44.5006 42.4693 44.3699 43.608C44.2393 44.728 44.1086 45.8387 43.9779 46.94C43.8659 48.0413 43.7633 49.0867 43.6699 50.076C43.4459 52.3907 43.2499 54.6493 43.0819 56.852L38.2099 57.72C38.2099 57.6267 38.2193 57.3747 38.2379 56.964C38.2753 56.5533 38.3126 56.0493 38.3499 55.452C38.4059 54.8547 38.4713 54.192 38.5459 53.464C38.6393 52.736 38.7233 52.008 38.7979 51.28C38.8913 50.552 38.9846 49.852 39.0779 49.18C39.1713 48.4893 39.2646 47.9013 39.3579 47.416H39.1059C38.8446 48.2 38.5553 49.0307 38.2379 49.908C37.9206 50.7667 37.5939 51.644 37.2579 52.54C36.9406 53.436 36.6233 54.3133 36.3059 55.172C35.9886 56.0307 35.7086 56.852 35.4659 57.636C34.8126 57.6547 34.2526 57.6827 33.7859 57.72C33.3193 57.7387 32.7779 57.7667 32.1619 57.804L33.0579 47.416H32.6379C32.6006 47.6587 32.5073 48.0693 32.3579 48.648C32.2086 49.208 32.0313 49.8613 31.8259 50.608C31.6393 51.336 31.4339 52.1013 31.2099 52.904C30.9859 53.688 30.7713 54.4253 30.5659 55.116C30.3793 55.788 30.2206 56.348 30.0899 56.796C29.9593 57.2253 29.8846 57.468 29.8659 57.524L25.2459 57.832ZM43.6459 58.028L47.3139 38.12L56.1619 37.364C56.0312 37.7747 55.9192 38.1947 55.8259 38.624C55.7325 38.9787 55.6392 39.352 55.5459 39.744C55.4712 40.1173 55.4059 40.4533 55.3499 40.752C55.1632 40.7707 54.8925 40.7893 54.5379 40.808C54.2019 40.808 53.8379 40.8173 53.4459 40.836C53.0539 40.836 52.6525 40.836 52.2419 40.836C51.8499 40.836 51.5045 40.836 51.2059 40.836L50.2259 45.848C50.8045 45.8107 51.3459 45.7827 51.8499 45.764C52.2605 45.7453 52.6805 45.736 53.1099 45.736C53.5392 45.736 53.8565 45.7267 54.0619 45.708C53.9872 46.2307 53.9125 46.744 53.8379 47.248C53.7819 47.752 53.7072 48.2653 53.6139 48.788C53.4272 48.8067 53.1192 48.8253 52.6899 48.844C52.2792 48.844 51.8592 48.8533 51.4299 48.872C50.9445 48.8907 50.4125 48.9093 49.8339 48.928L48.8819 54.08L52.9699 53.436L52.6899 56.628L43.6459 58.028ZM65.0328 56.88C64.8648 56.88 64.5102 56.8893 63.9688 56.908C63.4275 56.9267 62.7835 56.9547 62.0368 56.992C61.3088 57.0293 60.5155 57.076 59.6568 57.132C58.7982 57.188 57.9582 57.2533 57.1368 57.328C56.3155 57.384 55.5502 57.4493 54.8408 57.524C54.1502 57.5987 53.5995 57.6733 53.1888 57.748L53.2168 53.66L61.1688 42.824C60.8515 42.824 60.4035 42.8613 59.8248 42.936C59.2462 42.992 58.6582 43.0573 58.0608 43.132C57.4822 43.2067 56.9782 43.2813 56.5488 43.356L55.8768 43.412L56.4088 39.016L67.8608 38.204L67.1328 42.068L59.4888 52.932C59.8622 52.932 60.3568 52.9133 60.9728 52.876C61.6075 52.8387 62.2608 52.8013 62.9328 52.764C63.6048 52.7267 64.3328 52.68 65.1168 52.624L65.0328 56.88ZM80.7034 42.852C80.7034 44.3827 80.5354 45.8293 80.1994 47.192C79.8821 48.536 79.4528 49.7773 78.9114 50.916C78.3701 52.036 77.7354 53.044 77.0074 53.94C76.2981 54.8173 75.5514 55.5733 74.7674 56.208C73.9834 56.824 73.1901 57.3 72.3874 57.636C71.5848 57.9533 70.8194 58.112 70.0914 58.112C69.4754 58.112 68.9154 58 68.4114 57.776C67.9074 57.5333 67.4688 57.188 67.0954 56.74C66.7221 56.2733 66.4234 55.6853 66.1994 54.976C65.9941 54.248 65.8914 53.38 65.8914 52.372C65.8914 51.3267 66.0221 50.2253 66.2834 49.068C66.5448 47.9107 66.8994 46.7627 67.3474 45.624C67.7954 44.4853 68.3461 43.4027 68.9994 42.376C69.6528 41.3493 70.3714 40.444 71.1554 39.66C71.9394 38.8573 72.7794 38.2227 73.6754 37.756C74.5714 37.2893 75.5048 37.056 76.4754 37.056C77.3154 37.056 78.0061 37.2333 78.5474 37.588C79.1074 37.924 79.5368 38.372 79.8354 38.932C80.1528 39.4733 80.3768 40.0893 80.5074 40.78C80.6381 41.4707 80.7034 42.1613 80.7034 42.852ZM70.0634 51.644C70.0634 51.8493 70.1008 52.064 70.1754 52.288C70.2501 52.512 70.3528 52.708 70.4834 52.876C70.6141 53.044 70.7728 53.1933 70.9594 53.324C71.1648 53.436 71.3794 53.492 71.6034 53.492C72.4434 53.492 73.1901 53.2027 73.8434 52.624C74.4968 52.0453 75.0381 51.336 75.4674 50.496C75.8968 49.656 76.2234 48.76 76.4474 47.808C76.6901 46.856 76.8114 45.988 76.8114 45.204C76.8114 44.98 76.7928 44.7373 76.7554 44.476C76.7368 44.2147 76.6808 43.972 76.5874 43.748C76.5128 43.524 76.3821 43.3373 76.1954 43.188C76.0274 43.02 75.7941 42.936 75.4954 42.936C74.8981 42.936 74.3474 43.0853 73.8434 43.384C73.3394 43.6827 72.8821 44.084 72.4714 44.588C72.0794 45.0733 71.7341 45.6333 71.4354 46.268C71.1368 46.884 70.8754 47.5187 70.6514 48.172C70.4461 48.8067 70.2968 49.432 70.2034 50.048C70.1101 50.664 70.0634 51.196 70.0634 51.644ZM78.972 58.14C79.532 55.452 80.064 52.848 80.568 50.328C80.7547 49.2453 80.9507 48.1253 81.156 46.968C81.38 45.8107 81.5854 44.672 81.772 43.552C81.9587 42.4133 82.1267 41.3307 82.276 40.304C82.4254 39.2587 82.5374 38.316 82.612 37.476C82.8547 37.4947 83.06 37.504 83.228 37.504C83.396 37.504 83.592 37.504 83.816 37.504C84.0774 37.504 84.3947 37.504 84.768 37.504C85.1414 37.4853 85.5147 37.4667 85.888 37.448C86.2614 37.4293 86.6627 37.4107 87.092 37.392C87.3534 38.6987 87.5867 39.9587 87.792 41.172C87.9974 42.236 88.2027 43.328 88.408 44.448C88.632 45.568 88.828 46.52 88.996 47.304C89.0707 46.9307 89.1547 46.5013 89.248 46.016C89.3414 45.512 89.444 44.9893 89.556 44.448C89.668 43.9067 89.7707 43.3653 89.864 42.824C89.976 42.264 90.088 41.7133 90.2 41.172C90.4614 39.9587 90.732 38.708 91.012 37.42L94.428 37C93.7934 39.856 93.2334 42.5627 92.748 45.12C92.524 46.2213 92.3 47.3413 92.076 48.48C91.8707 49.6 91.6747 50.6827 91.488 51.728C91.3014 52.7547 91.1427 53.716 91.012 54.612C90.8814 55.4893 90.7787 56.2267 90.704 56.824C90.648 56.824 90.424 56.8707 90.032 56.964C89.6587 57.0387 89.22 57.132 88.716 57.244C88.2307 57.356 87.736 57.468 87.232 57.58C86.7467 57.692 86.3827 57.7947 86.14 57.888C86.028 56.3947 85.9067 54.976 85.776 53.632C85.72 53.0533 85.6547 52.4653 85.58 51.868C85.524 51.252 85.4587 50.664 85.384 50.104C85.3094 49.544 85.2347 49.0213 85.16 48.536C85.0854 48.0507 85.0107 47.6307 84.936 47.276C84.88 47.6307 84.8054 48.0413 84.712 48.508C84.6187 48.9747 84.5254 49.4693 84.432 49.992C84.3387 50.5147 84.2454 51.0653 84.152 51.644C84.0587 52.204 83.956 52.7453 83.844 53.268C83.6014 54.5187 83.34 55.8253 83.06 57.188L78.972 58.14ZM91.7162 58.028L95.3842 38.12L104.232 37.364C104.102 37.7747 103.99 38.1947 103.896 38.624C103.803 38.9787 103.71 39.352 103.616 39.744C103.542 40.1173 103.476 40.4533 103.42 40.752C103.234 40.7707 102.963 40.7893 102.608 40.808C102.272 40.808 101.908 40.8173 101.516 40.836C101.124 40.836 100.723 40.836 100.312 40.836C99.9202 40.836 99.5749 40.836 99.2762 40.836L98.2962 45.848C98.8749 45.8107 99.4162 45.7827 99.9202 45.764C100.331 45.7453 100.751 45.736 101.18 45.736C101.61 45.736 101.927 45.7267 102.132 45.708C102.058 46.2307 101.983 46.744 101.908 47.248C101.852 47.752 101.778 48.2653 101.684 48.788C101.498 48.8067 101.19 48.8253 100.76 48.844C100.35 48.844 99.9295 48.8533 99.5002 48.872C99.0149 48.8907 98.4829 48.9093 97.9042 48.928L96.9522 54.08L101.04 53.436L100.76 56.628L91.7162 58.028Z" fill="black"/>
<path d="M37.2055 31H25L28.6986 1H46.4521L51.6301 5.7191L56.8082 1H75.3014L79 31H66.7945L56.8082 22.236H46.4521L37.2055 31Z" fill="black" stroke="black"/>
<path d="M59.3973 5.04498L51.6302 12.1236L44.6028 5.04498H32.0274L28.6987 27.2922H35.3562L44.6028 19.5394H59.3973L68.274 27.2922H75.3014L71.9726 5.04498H59.3973Z" fill="white" stroke="white"/>
<path d="M40.5342 15.8315V18.5281H36.8356V15.8315H33.8767V12.4607H36.8356V9.76404H40.5342V12.4607H43.4931V15.8315H40.5342Z" fill="#6C979C" stroke="#6C979C"/>
<path d="M66.4247 19.2022L70.8631 15.1573L68.6439 13.1348L64.2056 17.1798L66.4247 19.2022Z" fill="#DA3232" stroke="#DA3232"/>
<path d="M62.7261 15.8315L67.1645 11.7865L64.9453 9.76404L60.507 13.809L62.7261 15.8315Z" fill="#46D45C" stroke="#46D45C"/>
</svg>
